<svg width="17" height="16" viewBox="0 0 17 16" fill="none" xmlns="http://www.w3.org/2000/svg">
<path d="M16.9999 8C16.9999 8.26522 16.8946 8.51957 16.707 8.70711C16.5195 8.89465 16.2652 9 15.9999 9H4.40994L8.70994 13.29C8.89824 13.4783 9.00403 13.7337 9.00403 14C9.00403 14.2663 8.89824 14.5217 8.70994 14.71C8.52164 14.8983 8.26624 15.0041 7.99994 15.0041C7.73364 15.0041 7.47824 14.8983 7.28994 14.71L1.28994 8.71C1.19621 8.61704 1.12182 8.50644 1.07105 8.38458C1.02028 8.26272 0.994141 8.13201 0.994141 8C0.994141 7.86799 1.02028 7.73728 1.07105 7.61543C1.12182 7.49357 1.19621 7.38297 1.28994 7.29L7.28994 1.29C7.38318 1.19676 7.49387 1.1228 7.61569 1.07234C7.73751 1.02188 7.86808 0.995911 7.99994 0.995911C8.1318 0.995911 8.26237 1.02188 8.38419 1.07234C8.50601 1.1228 8.6167 1.19676 8.70994 1.29C8.80318 1.38324 8.87714 1.49393 8.9276 1.61575C8.97806 1.73758 9.00403 1.86814 9.00403 2C9.00403 2.13186 8.97806 2.26243 8.9276 2.38425C8.87714 2.50607 8.80318 2.61676 8.70994 2.71L4.40994 7H15.9999C16.2652 7 16.5195 7.10536 16.707 7.2929C16.8946 7.48043 16.9999 7.73479 16.9999 8Z" fill="#212B36"/>
</svg>
